<?xml version="1.0" encoding="utf-8"?>
<!-- Generator: Adobe Illustrator 23.0.1, SVG Export Plug-In . SVG Version: 6.00 Build 0)  -->
<svg version="1.1" id="Layer_1" xmlns="http://www.w3.org/2000/svg" xmlns:xlink="http://www.w3.org/1999/xlink" x="0px" y="0px"
	 viewBox="0 0 118.7 77" style="enable-background:new 0 0 118.7 77;" xml:space="preserve">
<style type="text/css">
	.st0{enable-background:new    ;}
	.st1{fill:#CC2029;}
	.st2{fill:#F2D034;}
</style>
<g class="st0">
	<path class="st1" d="M32.4,11.3h6.9l-5.5,21.5h-8.1L23,20l-2.9,12.8H12L6.6,11.3h7.3l2.2,14.5l3.5-14.5h6.9l3.5,14.5L32.4,11.3z"/>
	<path class="st1" d="M52.4,11.3h6.9v21.5h-6.9v-8.5h-5.1v8.5h-6.9V11.3h6.9v8.8h5.1V11.3z"/>
	<path class="st1" d="M67.4,11.3h5.9c3.9,0,5.9,1.4,5.9,4.2v13.2c0,2.8-2,4.1-5.9,4.1h-5.9c-3.9,0-5.9-1.4-5.9-4.1V15.5
		C61.5,12.7,63.4,11.3,67.4,11.3z M72.2,27.9V16.3c0-0.5-0.3-0.7-1-0.7h-1.7c-0.7,0-1,0.2-1,0.7v11.6c0,0.5,0.3,0.7,1,0.7h1.7
		C71.9,28.6,72.2,28.4,72.2,27.9z"/>
</g>
<g class="st0">
	<path class="st1" d="M85.6,30.1h5.2v2.7H81V18.9h4.5V30.1z"/>
	<path class="st1" d="M96.3,30.1h5.7v2.7H91.8V18.9h10v2.7h-5.5v2.8h4.7v2.7h-4.7V30.1z"/>
	<path class="st1" d="M113.5,18.9v2.7h-3.2v11.2h-4.5V21.6h-3.2v-2.7H113.5z"/>
</g>
<g class="st0">
	<path class="st1" d="M17.2,34.9v2.7h-3.2v11.2H9.4V37.6H6.2v-2.7H17.2z"/>
	<path class="st1" d="M26.1,34.9h4.5v13.9h-4.5v-5.5h-3.3v5.5h-4.5V34.9h4.5v5.7h3.3V34.9z"/>
	<path class="st1" d="M37.2,46.1h5.7v2.7H32.6V34.9h10v2.7h-5.5v2.8h4.7v2.7h-4.7V46.1z"/>
</g>
<g class="st0">
	<path class="st2" d="M46.9,34.7h8.1c2.7,0,4.1,1,4.1,2.9v9.1c0,1.9-1.4,2.9-4.1,2.9h-8.1V34.7z M54.3,46.3v-8.5
		c0-0.3-0.2-0.5-0.7-0.5h-1.8v9.5h1.8C54.1,46.8,54.3,46.6,54.3,46.3z"/>
	<path class="st2" d="M65.2,34.7h4.1c2.7,0,4.1,1,4.1,2.9v9.1c0,1.9-1.4,2.9-4.1,2.9h-4.1c-2.7,0-4.1-1-4.1-2.9v-9.1
		C61.2,35.6,62.5,34.7,65.2,34.7z M68.5,46.1v-8c0-0.3-0.2-0.5-0.7-0.5h-1.2c-0.5,0-0.7,0.2-0.7,0.5v8c0,0.3,0.2,0.5,0.7,0.5h1.2
		C68.3,46.6,68.5,46.4,68.5,46.1z"/>
	<path class="st2" d="M87.4,39.7h-4.8v-1.9c0-0.3-0.2-0.5-0.7-0.5h-1c-0.5,0-0.7,0.2-0.7,0.5v8.5c0,0.3,0.2,0.5,0.7,0.5h1
		c0.5,0,0.7-0.2,0.7-0.5v-2.5h-1.4v-2.6h6.2v5.3c0,1.9-1.4,2.9-4.1,2.9h-3.9c-2.7,0-4.1-1-4.1-2.9v-9.1c0-1.9,1.4-2.9,4.1-2.9h3.9
		c2.7,0,4.1,1,4.1,2.9V39.7z"/>
	<path class="st2" d="M96.1,46.1V44c0-0.3-0.2-0.5-0.7-0.5h-2.6c-1.4,0-2.3-0.2-2.9-0.7c-0.6-0.5-0.8-1.2-0.8-2.2v-3
		c0-1.9,1.3-2.9,4-2.9h3.8c2.7,0,4,1,4,2.9v1.8h-4.8v-1.2c0-0.3-0.2-0.5-0.7-0.5h-0.8c-0.5,0-0.7,0.2-0.7,0.5v2.2
		c0,0.3,0.2,0.5,0.7,0.5h2.6c1.4,0,2.3,0.2,2.9,0.7c0.6,0.5,0.9,1.2,0.9,2.1v3c0,1.9-1.3,2.9-4,2.9h-3.8c-2.7,0-4.1-1-4.1-2.9v-1.8
		h4.8v1.2c0,0.3,0.2,0.5,0.7,0.5h0.8C95.9,46.6,96.1,46.4,96.1,46.1z"/>
</g>
<g class="st0">
	<path class="st2" d="M60.4,65.4l-0.6-2.2h-4.2L55,65.4h-4.7l4.6-14.8h5.9l4.6,14.8H60.4z M56.3,60.4h2.8l-1.4-5.3L56.3,60.4z"/>
	<path class="st2" d="M66.3,50.7h8.2c2.7,0,4.1,1,4.1,2.9v4.2c0,1.9-1.4,2.9-4.1,2.9h-3.4v4.8h-4.8V50.7z M73.7,57.2v-3.2
		c0-0.3-0.2-0.5-0.7-0.5h-1.9v4.2H73C73.5,57.7,73.7,57.6,73.7,57.2z"/>
	<path class="st2" d="M80.2,50.7h8.2c2.7,0,4.1,1,4.1,2.9v4.2c0,1.9-1.4,2.9-4.1,2.9h-3.4v4.8h-4.8V50.7z M87.6,57.2v-3.2
		c0-0.3-0.2-0.5-0.7-0.5h-1.9v4.2H87C87.4,57.7,87.6,57.6,87.6,57.2z"/>
</g>
</svg>
